<?xml version="1.0" encoding="UTF-8"?><svg id="b" xmlns="http://www.w3.org/2000/svg" viewBox="0 0 67.472 60.291"><defs><style>.d{fill:#fff;}</style></defs><g id="c"><path class="d" d="M30.313,15.553c-.092,.457-.437,.763-.616,.905-.758,.597-6.614,4.603-9.325,7.183-.499,.475-1.246,1.249-1.313,2.313-.041,.657,.221,1.361,.857,2.212,6.07,8.127,11.655,16.637,19.217,23.55,2.019,1.846,4.214,3.448,6.795,4.325,3.883,1.32,7.324,.509,10.17-2.58,1.258-1.365,2.484-2.851,4.005-3.862,2.276-1.514,4.861-1.393,6.488,.895,1.659,2.334,.869,4.801-1.48,6.289-6.299,3.99-13.309,4.105-20.259,2.668-11.103-2.295-18.375-10.137-25.178-18.441-1.887-2.303-3.542-4.794-5.336-7.175-.363-.481-.724-1.312-1.472-.924-.312,.162-.368,.987-.385,1.516-.108,3.398,.363,6.707,1.881,9.783,.773,1.567,.715,2.443-1.343,2.417-3.729-.047-7.459-.021-11.189-.021-1.395,0-2.214-.365-1.474-1.989,2.316-5.076,2.378-10.491,2.214-15.903C2.32,20.487,3.744,12.087,.151,4.177c-.471-1.036,.225-1.568,1.14-1.809C4.264,1.586,7.226,.753,10.225,.088c2.163-.479,2.158,1.099,2.158,2.583,0,7.548-.004,15.097,.04,22.645,.004,.761-.428,1.898,.605,2.165,.429,.11,1.182-.734,1.68-1.247,1.88-1.938,3.821-3.831,5.114-6.251,.288-.539,.425-.735,.52-.965,.795-1.92-.049-3.037,.63-3.691,.199-.191,.289-.114,3.135-.184,.927-.023,1.136-.037,1.843-.043,1.649-.014,1.404,.052,2.156,.017,1.281-.06,2.034-.255,2.208,.073,.053,.1,.031,.209,0,.364Z"/></g></svg>