<?xml version="1.0" encoding="UTF-8"?><svg id="b" xmlns="http://www.w3.org/2000/svg" viewBox="0 0 51.78 40.593"><defs><style>.d{fill:#fff;}</style></defs><g id="c"><path class="d" d="M32.235,37.463c.756,.54,1.468,.9,1.862,1.097,1.191,.596,2.453,1.039,4.078,1.391,2.622,.567,5.348,.956,8.662,.295,2.609-.52,4.638-1.958,4.916-4.9,.194-2.051-.693-3.708-2.683-4.284-2.932-.848-4.356,1.314-5.768,3.332-1.036,1.481-1.907,3.47-4.11,3.087-2.236-.389-2.949-2.45-3.654-4.351-2.16-5.83-1.958-11.93-2.102-17.994C33.208,5.405,24.607-1.553,15.073,.3c-1.215,.236-2.616,1.292-3.541,.941C7.738-.198,4.645,2.182,1.235,2.694,.114,2.863-.274,3.413,.195,4.63c3.01,7.813,3.262,15.708,.424,23.626-.434,1.211-.206,1.753,1.087,1.743,3.496-.029,6.991-.065,10.487-.108,1.24-.015,1.651-.517,1.091-1.734-3.017-6.559-2.36-13.507-1.947-20.38,.152-2.536,1.152-5.062,4.181-5.493,2.915-.415,5.168,.955,6.649,3.457,.979,1.655,1.474,3.501,1.942,5.372,1.022,4.086-.023,4.667,.538,9.296,.15,1.241,.529,3.863,1.531,7.032,.403,1.275,.867,2.717,1.786,4.51,.927,1.809,2.033,3.911,4.272,5.511Z"/></g></svg>