<?xml version="1.0" encoding="UTF-8"?><svg id="b" xmlns="http://www.w3.org/2000/svg" viewBox="0 0 32.33 43.207"><defs><style>.d{fill:#fff;}</style></defs><g id="c"><path class="d" d="M6.925,43.128c-2.169-.129-5.002,.534-6.342-.586-1.71-1.43,.861-3.617,1.149-5.62,.996-6.922,1.218-13.749-1.363-20.388-.562-1.446-.272-2.126,1.171-2.456,.595-.136,1.168-.39,1.767-.48,5.205-.778,9.282-2.467,12.128-7.774C18.879-.596,26.069-1.697,30.153,2.465c.767,.782,1.37,1.816,1.774,2.841,.782,1.985,.503,3.839-1.492,5.001-2.091,1.218-3.81,.545-5.291-1.238-3.204-3.858-5.989-3.818-9.101,.163-2.367,3.029-3.813,6.599-4.177,10.32-.703,7.203-1.249,14.486,1.584,21.458,.563,1.385,.184,1.967-1.275,1.958-1.748-.011-3.496-.003-5.244-.003l-.006,.162Z"/></g></svg>