<?xml version="1.0" encoding="UTF-8"?><svg id="b" xmlns="http://www.w3.org/2000/svg" viewBox="0 0 50.446 41.002"><defs><style>.d{fill:#fff;}</style></defs><g id="c"><path class="d" d="M10.982,16.136c-.077,4.095,.126,8.162,1.89,11.963,.592,1.276,.004,1.696-1.154,1.701-3.412,.013-6.825-.004-10.237-.012-1.247-.003-1.614-.545-1.185-1.747,2.811-7.882,2.928-15.759-.123-23.616-.424-1.091-.074-1.719,1.101-1.988,2.027-.464,4.042-.984,6.051-1.523,2.054-.55,3.844-.867,3.693,2.275-.06,1.248,.681,1.109,1.398,.406C18.935-2.787,26.38-.279,30.39,8.014c1.774,3.669,3.645,7.292,5.513,10.915,.287,.556,.796,.998,1.203,1.493,.363-.442,.826-.836,1.072-1.335,1.287-2.608,2.54-5.235,3.765-7.873,1.173-2.527,1.5-5.116,.224-7.705-.539-1.094-.533-1.727,.907-1.727,2.081,0,4.163-.059,6.243-.035,.868,.01,1.597,.23,.759,1.314-6.614,8.551-10.686,18.559-15.975,27.869-2.248,3.956-4.622,7.725-9.177,9.439-2.59,.975-5.089,.853-7.433-.57-2.302-1.397-3.183-3.514-1.928-5.97,1.248-2.443,3.415-3.046,5.935-1.916,.902,.404,1.744,.972,2.549,1.553,1.999,1.441,4.115,2.158,6.105,.251,1.91-1.831,2.751-3.881,1.261-6.673-3.289-6.158-6.231-12.499-9.396-18.725-1.228-2.416-2.733-4.975-5.99-4.205-3.218,.761-4.501,3.555-4.992,6.54-.293,1.782-.054,3.651-.054,5.481Z"/></g></svg>